<svg width="100" height="100" viewBox="0 0 100 100" fill="none" xmlns="http://www.w3.org/2000/svg">
<rect width="100" height="100" rx="22" fill="#111111"/>
<path d="M21.4041 36.8062L15 29.4451C21.4493 24.8131 34.9941 15.9673 43.6963 21.4194C51.003 25.9971 45.9389 40.4917 42.6011 47.2408C53.8691 34.6522 72.3577 21.835 80.1938 17L85 25.0988C66.6653 34.4948 38.2122 64.4417 22.9895 83.1827L15.2361 77.8226C26.5552 59.5672 40.3112 30.4647 38.2122 29.4451C34.3146 27.5521 25.1124 33.5995 21.4041 36.8062Z" fill="white"/>
<path d="M46.5352 65.3433L54.437 57.5904C55.0698 61.0067 57.1415 69.8892 61.8014 72.6225C66.8132 75.562 73.9921 72.252 77.282 69.7466L82.2928 77.7938C79.6606 79.945 72.0895 84.0346 62.8574 83.1843C53.6259 82.3339 48.1292 70.9359 46.5352 65.3433Z" fill="white"/>
</svg>
