<svg width="29" height="28" viewBox="0 0 29 28" fill="none" xmlns="http://www.w3.org/2000/svg">
<path d="M2.65312 8.20542L0 5.15582C2.67183 3.23686 8.28327 -0.427836 11.8885 1.83091C14.9155 3.72738 12.8175 9.73227 11.4347 12.5283C16.1029 7.31306 23.7625 2.00308 27.0089 0L29 3.35523C21.4042 7.24783 9.61648 19.6544 3.30993 27.4185L0.0978227 25.198C4.78717 17.635 10.4861 5.57824 9.61648 5.15582C8.00175 4.37159 4.18942 6.87692 2.65312 8.20542Z" fill="#202020"/>
<path d="M13.0646 20.0279L16.3382 16.816C16.6004 18.2314 17.4587 21.9112 19.3892 23.0436C21.4655 24.2614 24.4396 22.8901 25.8026 21.8521L27.8784 25.186C26.788 26.0772 23.6514 27.7715 19.8267 27.4192C16.0021 27.0669 13.725 22.3449 13.0646 20.0279Z" fill="#202020"/>
</svg>
